<svg xmlns="http://www.w3.org/2000/svg" width="1200" height="710" viewBox="0 0 1200 710" fill="none">
  <defs>
    <linearGradient id="bg" x1="0" y1="0" x2="1200" y2="710" gradientUnits="userSpaceOnUse">
      <stop stop-color="#EFF6FF"/>
      <stop offset="1" stop-color="#DBEAFE"/>
    </linearGradient>
    <linearGradient id="card" x1="0" y1="0" x2="1" y2="1">
      <stop stop-color="#FFFFFF"/>
      <stop offset="1" stop-color="#F8FAFC"/>
    </linearGradient>
  </defs>

  <rect x="0" y="0" width="1200" height="710" rx="32" fill="url(#bg)"/>

  <text x="70" y="110" font-family="ui-sans-serif, system-ui, -apple-system, Segoe UI, Roboto" font-size="44" font-weight="700" fill="#0F172A">
    Kanban
  </text>
  <text x="70" y="155" font-family="ui-sans-serif, system-ui, -apple-system, Segoe UI, Roboto" font-size="20" font-weight="500" fill="#475569">
    Visual workflow with columns and WIP limits
  </text>

  <g transform="translate(70,220)">
    <rect x="0" y="0" width="1060" height="420" rx="18" fill="rgba(255,255,255,0.75)" stroke="rgba(148,163,184,0.35)"/>

    <g transform="translate(26,22)">
      <text x="0" y="26" font-family="ui-sans-serif, system-ui" font-size="16" font-weight="700" fill="#334155">To Do</text>
      <rect x="0" y="44" width="320" height="330" rx="14" fill="url(#card)" stroke="rgba(148,163,184,0.35)"/>
      <rect x="18" y="68" width="284" height="56" rx="12" fill="#E2E8F0"/>
      <rect x="18" y="138" width="220" height="14" rx="7" fill="#CBD5E1"/>
      <rect x="18" y="164" width="160" height="14" rx="7" fill="#CBD5E1"/>
      <rect x="18" y="208" width="284" height="56" rx="12" fill="#E2E8F0"/>
      <rect x="18" y="278" width="240" height="14" rx="7" fill="#CBD5E1"/>
      <rect x="18" y="304" width="188" height="14" rx="7" fill="#CBD5E1"/>
    </g>

    <g transform="translate(370,22)">
      <text x="0" y="26" font-family="ui-sans-serif, system-ui" font-size="16" font-weight="700" fill="#334155">In Progress</text>
      <rect x="0" y="44" width="320" height="330" rx="14" fill="url(#card)" stroke="rgba(148,163,184,0.35)"/>
      <rect x="18" y="68" width="284" height="56" rx="12" fill="#BFDBFE"/>
      <rect x="18" y="138" width="200" height="14" rx="7" fill="#93C5FD"/>
      <rect x="18" y="164" width="150" height="14" rx="7" fill="#93C5FD"/>
      <rect x="18" y="208" width="284" height="56" rx="12" fill="#BFDBFE"/>
      <rect x="18" y="278" width="232" height="14" rx="7" fill="#93C5FD"/>
      <rect x="18" y="304" width="180" height="14" rx="7" fill="#93C5FD"/>
    </g>

    <g transform="translate(714,22)">
      <text x="0" y="26" font-family="ui-sans-serif, system-ui" font-size="16" font-weight="700" fill="#334155">Done</text>
      <rect x="0" y="44" width="320" height="330" rx="14" fill="url(#card)" stroke="rgba(148,163,184,0.35)"/>
      <rect x="18" y="68" width="284" height="56" rx="12" fill="#DCFCE7"/>
      <rect x="18" y="138" width="180" height="14" rx="7" fill="#86EFAC"/>
      <rect x="18" y="164" width="120" height="14" rx="7" fill="#86EFAC"/>
      <rect x="18" y="208" width="284" height="56" rx="12" fill="#DCFCE7"/>
      <rect x="18" y="278" width="210" height="14" rx="7" fill="#86EFAC"/>
      <rect x="18" y="304" width="160" height="14" rx="7" fill="#86EFAC"/>
    </g>
  </g>
</svg>

