<svg xmlns="http://www.w3.org/2000/svg" width="1200" height="710" viewBox="0 0 1200 710" fill="none">
  <defs>
    <linearGradient id="bg" x1="0" y1="0" x2="1200" y2="710" gradientUnits="userSpaceOnUse">
      <stop stop-color="#ECFDF5"/>
      <stop offset="1" stop-color="#D1FAE5"/>
    </linearGradient>
  </defs>

  <rect x="0" y="0" width="1200" height="710" rx="32" fill="url(#bg)"/>

  <text x="70" y="120" font-family="ui-sans-serif, system-ui, -apple-system, Segoe UI, Roboto" font-size="44" font-weight="700" fill="#0F172A">
    Projects
  </text>
  <text x="70" y="165" font-family="ui-sans-serif, system-ui, -apple-system, Segoe UI, Roboto" font-size="20" font-weight="500" fill="#475569">
    Organize workspaces, phases, and deliverables
  </text>

  <g transform="translate(70,220)">
    <rect x="0" y="0" width="1060" height="420" rx="18" fill="rgba(255,255,255,0.75)" stroke="rgba(148,163,184,0.35)"/>

    <g transform="translate(52,64)">
      <circle cx="44" cy="44" r="44" fill="#10B981" opacity="0.16"/>
      <path d="M30 40h28l10 12H30V40Z" fill="#059669"/>
      <path d="M30 40c0-6 4-10 10-10h18c6 0 10 4 10 10" stroke="#059669" stroke-width="6" stroke-linecap="round"/>
      <text x="110" y="52" font-family="ui-sans-serif, system-ui" font-size="26" font-weight="800" fill="#0F172A">Projects</text>
    </g>

    <!-- Project cards grid -->
    <g transform="translate(52,160)">
      <rect x="0" y="0" width="956" height="220" rx="16" fill="#FFFFFF" stroke="rgba(148,163,184,0.35)"/>
      <g transform="translate(24,24)">
        <rect x="0" y="0" width="280" height="78" rx="14" fill="#F1F5F9"/>
        <rect x="18" y="18" width="160" height="14" rx="7" fill="#CBD5E1"/>
        <rect x="18" y="44" width="110" height="12" rx="6" fill="#E2E8F0"/>
        <rect x="196" y="42" width="64" height="22" rx="11" fill="#D1FAE5"/>
      </g>
      <g transform="translate(328,24)">
        <rect x="0" y="0" width="280" height="78" rx="14" fill="#F8FAFC"/>
        <rect x="18" y="18" width="180" height="14" rx="7" fill="#CBD5E1"/>
        <rect x="18" y="44" width="130" height="12" rx="6" fill="#E2E8F0"/>
        <rect x="196" y="42" width="64" height="22" rx="11" fill="#ECFDF5"/>
      </g>
      <g transform="translate(632,24)">
        <rect x="0" y="0" width="280" height="78" rx="14" fill="#F1F5F9"/>
        <rect x="18" y="18" width="150" height="14" rx="7" fill="#CBD5E1"/>
        <rect x="18" y="44" width="118" height="12" rx="6" fill="#E2E8F0"/>
        <rect x="196" y="42" width="64" height="22" rx="11" fill="#D1FAE5"/>
      </g>

      <g transform="translate(24,122)">
        <rect x="0" y="0" width="888" height="74" rx="14" fill="#FFFFFF" stroke="rgba(148,163,184,0.25)"/>
        <rect x="18" y="18" width="220" height="14" rx="7" fill="#CBD5E1"/>
        <rect x="18" y="44" width="340" height="12" rx="6" fill="#E2E8F0"/>
        <rect x="740" y="22" width="130" height="30" rx="15" fill="#10B981" opacity="0.14"/>
      </g>
    </g>
  </g>
</svg>

